<?xml version="1.0" encoding="utf-8"?>
<!-- Generator: Adobe Illustrator 24.0.0, SVG Export Plug-In . SVG Version: 6.00 Build 0)  -->
<svg version="1.1" id="Capa_1" xmlns="http://www.w3.org/2000/svg" xmlns:xlink="http://www.w3.org/1999/xlink" x="0px" y="0px"
	 viewBox="0 0 384 512" style="enable-background:new 0 0 384 512;" xml:space="preserve">
<style type="text/css">
	.st0{fill:#2B5AC4;}
</style>
<path class="st0" d="M336,0H48C21.5,0,0,21.5,0,48v416c0,26.5,21.5,48,48,48h288c26.5,0,48-21.5,48-48V48C384,21.5,362.5,0,336,0z
	 M144,32h96c8.8,0,16,7.2,16,16s-7.2,16-16,16h-96c-8.8,0-16-7.2-16-16S135.2,32,144,32z M192,160c35.3,0,64,28.7,64,64
	s-28.7,64-64,64s-64-28.7-64-64S156.7,160,192,160z M304,396.8c0,10.6-10,19.2-22.4,19.2H102.4C90,416,80,407.4,80,396.8v-19.2
	c0-31.8,30.1-57.6,67.2-57.6h5c12.3,5.1,25.7,8,39.8,8s27.6-2.9,39.8-8h5c37.1,0,67.2,25.8,67.2,57.6V396.8z"/>
</svg>
